<svg xmlns="http://www.w3.org/2000/svg" width="1280" height="720" viewBox="0 0 1280 720" role="img" aria-labelledby="title desc">
  <title id="title">CAPL 자동화 테스트 환경</title><desc id="desc">요구사양을 CAPL 시나리오와 Test Module로 실행하고 결과를 수집하는 흐름도</desc>
  <rect width="1280" height="720" fill="#f5f7fa"/>
  <rect x="50" y="45" width="1180" height="630" rx="22" fill="#fff" stroke="#d8e0ea" stroke-width="3"/>
  <text x="90" y="105" font-family="Arial, sans-serif" font-size="34" font-weight="700" fill="#0b1f3a">CAPL Automation Test Environment</text>
  <text x="90" y="142" font-family="Arial, sans-serif" font-size="20" fill="#607086">Repeatable scenario execution and evidence collection</text>
  <g font-family="Arial, sans-serif" text-anchor="middle">
    <g transform="translate(95 250)"><rect width="215" height="145" rx="16" fill="#edf4ff" stroke="#216fe6" stroke-width="3"/><text x="107" y="48" font-size="23" font-weight="700" fill="#0b1f3a">Requirement</text><text x="107" y="82" font-size="17" fill="#52657d">Precondition</text><text x="107" y="108" font-size="17" fill="#52657d">Input · Expected</text></g>
    <path d="M320 322 H405" stroke="#216fe6" stroke-width="5" fill="none"/><polygon points="405,322 385,310 385,334" fill="#216fe6"/>
    <g transform="translate(420 220)"><rect width="240" height="205" rx="16" fill="#0b1f3a"/><text x="120" y="54" font-size="27" font-weight="800" fill="#fff">CAPL Script</text><text x="120" y="92" font-size="17" fill="#bad6ff">Timers</text><text x="120" y="120" font-size="17" fill="#bad6ff">Signal Injection</text><text x="120" y="148" font-size="17" fill="#bad6ff">Message Wait</text><text x="120" y="176" font-size="17" fill="#bad6ff">Verdict Logic</text></g>
    <path d="M670 322 H755" stroke="#216fe6" stroke-width="5" fill="none"/><polygon points="755,322 735,310 735,334" fill="#216fe6"/>
    <g transform="translate(770 250)"><rect width="190" height="145" rx="16" fill="#216fe6"/><text x="95" y="50" font-size="24" font-weight="800" fill="#fff">Test Module</text><text x="95" y="84" font-size="17" fill="#e8f2ff">Execute</text><text x="95" y="112" font-size="17" fill="#e8f2ff">Repeat · Regression</text></g>
    <path d="M970 322 H1055" stroke="#216fe6" stroke-width="5" fill="none"/><polygon points="1055,322 1035,310 1035,334" fill="#216fe6"/>
    <g transform="translate(1070 250)"><rect width="125" height="145" rx="16" fill="#edf4ff" stroke="#216fe6" stroke-width="3"/><text x="62" y="50" font-size="22" font-weight="700" fill="#0b1f3a">Result</text><text x="62" y="84" font-size="17" fill="#52657d">Pass / Fail</text><text x="62" y="112" font-size="17" fill="#52657d">Log</text></g>
  </g>
  <g font-family="Arial, sans-serif">
    <rect x="120" y="495" width="1040" height="105" rx="14" fill="#f7f9fc" stroke="#d8e0ea" stroke-width="2"/>
    <text x="160" y="535" font-size="21" font-weight="700" fill="#0b1f3a">Automation focus</text>
    <text x="160" y="572" font-size="19" fill="#52657d">Boundary values · Fault Detection / Recovery / Clear · Timing · Pre-condition</text>
  </g>
</svg>