<svg xmlns="http://www.w3.org/2000/svg" width="1280" height="720" viewBox="0 0 1280 720" role="img" aria-labelledby="title desc">
  <title id="title">CANoe Network 구성도</title><desc id="desc">IVS와 BMS, ENG, STR, BRK, UDS 노드를 CAN 버스로 연결한 포트폴리오용 구성도</desc>
  <rect width="1280" height="720" fill="#f5f7fa"/>
  <rect x="50" y="45" width="1180" height="630" rx="22" fill="#fff" stroke="#d8e0ea" stroke-width="3"/>
  <text x="90" y="105" font-family="Arial, sans-serif" font-size="34" font-weight="700" fill="#0b1f3a">CANoe Network Configuration</text>
  <text x="90" y="142" font-family="Arial, sans-serif" font-size="20" fill="#607086">IVS Black Box Testing · Portfolio Reconstruction</text>
  <line x1="150" y1="385" x2="1130" y2="385" stroke="#216fe6" stroke-width="14" stroke-linecap="round"/>
  <text x="570" y="430" font-family="Arial, sans-serif" font-size="22" font-weight="700" fill="#216fe6">CAN 1 BUS</text>
  <g font-family="Arial, sans-serif" text-anchor="middle">
    <g transform="translate(170 230)"><rect width="150" height="100" rx="14" fill="#0b1f3a"/><text x="75" y="45" font-size="26" font-weight="700" fill="#fff">BMS</text><text x="75" y="75" font-size="16" fill="#bad6ff">Batt Signals</text><line x1="75" y1="100" x2="75" y2="155" stroke="#596b82" stroke-width="4"/></g>
    <g transform="translate(360 230)"><rect width="150" height="100" rx="14" fill="#0b1f3a"/><text x="75" y="45" font-size="26" font-weight="700" fill="#fff">ENG</text><text x="75" y="75" font-size="16" fill="#bad6ff">Engine State</text><line x1="75" y1="100" x2="75" y2="155" stroke="#596b82" stroke-width="4"/></g>
    <g transform="translate(565 190)"><rect width="150" height="140" rx="16" fill="#216fe6"/><text x="75" y="55" font-size="30" font-weight="800" fill="#fff">IVS</text><text x="75" y="88" font-size="17" fill="#e5f0ff">Target ECU</text><text x="75" y="115" font-size="15" fill="#d5e6ff">Fault Logic</text><line x1="75" y1="140" x2="75" y2="195" stroke="#216fe6" stroke-width="5"/></g>
    <g transform="translate(770 230)"><rect width="150" height="100" rx="14" fill="#0b1f3a"/><text x="75" y="45" font-size="26" font-weight="700" fill="#fff">STR</text><text x="75" y="75" font-size="16" fill="#bad6ff">Steering</text><line x1="75" y1="100" x2="75" y2="155" stroke="#596b82" stroke-width="4"/></g>
    <g transform="translate(960 230)"><rect width="150" height="100" rx="14" fill="#0b1f3a"/><text x="75" y="45" font-size="26" font-weight="700" fill="#fff">BRK</text><text x="75" y="75" font-size="16" fill="#bad6ff">Brake State</text><line x1="75" y1="100" x2="75" y2="155" stroke="#596b82" stroke-width="4"/></g>
    <g transform="translate(565 500)"><line x1="75" y1="-115" x2="75" y2="0" stroke="#596b82" stroke-width="4"/><rect width="150" height="95" rx="14" fill="#edf4ff" stroke="#216fe6" stroke-width="3"/><text x="75" y="40" font-size="25" font-weight="700" fill="#0b1f3a">UDS</text><text x="75" y="68" font-size="16" fill="#48617f">Diagnostic Node</text></g>
  </g>
  <rect x="90" y="610" width="1100" height="36" rx="8" fill="#edf4ff"/><text x="640" y="635" text-anchor="middle" font-family="Arial, sans-serif" font-size="18" fill="#244a7c">CANdb message/signal definitions · Panel input control · Trace monitoring</text>
</svg>